<?xml version="1.0" encoding="utf-8"?>
<svg version="1.1" xmlns:xlink="http://www.w3.org/1999/xlink" width="25px" height="25px" xmlns="http://www.w3.org/2000/svg">
  <g transform="matrix(1 0 0 1 -328 -114 )">
    <path d="M 17.8571428571429 5.35714285714286  L 23.6607142857143 5.35714285714286  C 24.0327380952381 5.35714285714286  24.3489583333333 5.48735119047619  24.609375 5.74776785714286  C 24.8697916666667 6.00818452380952  25 6.32440476190476  25 6.69642857142857  L 25 23.6607142857143  C 25 24.0327380952381  24.8697916666667 24.3489583333333  24.609375 24.609375  C 24.3489583333333 24.8697916666667  24.0327380952381 25  23.6607142857143 25  L 10.2678571428571 25  C 9.89583333333333 25  9.5796130952381 24.8697916666667  9.31919642857143 24.609375  C 9.05877976190476 24.3489583333333  8.92857142857143 24.0327380952381  8.92857142857143 23.6607142857143  L 8.92857142857143 19.6428571428571  L 1.33928571428571 19.6428571428571  C 0.967261904761905 19.6428571428571  0.651041666666667 19.5126488095238  0.390625 19.2522321428571  C 0.130208333333333 18.9918154761905  0 18.6755952380952  0 18.3035714285714  L 0 8.92857142857143  C 0 8.55654761904762  0.0930059523809524 8.14732142857143  0.279017857142857 7.70089285714286  C 0.465029761904762 7.25446428571428  0.688244047619048 6.90104166666667  0.948660714285714 6.640625  L 6.640625 0.948660714285715  C 6.90104166666667 0.688244047619047  7.25446428571429 0.465029761904762  7.70089285714286 0.279017857142858  C 8.14732142857143 0.0930059523809534  8.55654761904762 0  8.92857142857143 0  L 14.7321428571429 0  C 15.1041666666667 0  15.4203869047619 0.130208333333334  15.6808035714286 0.390625  C 15.9412202380952 0.651041666666666  16.0714285714286 0.967261904761904  16.0714285714286 1.33928571428572  L 16.0714285714286 5.91517857142857  C 16.7038690476191 5.54315476190476  17.2991071428571 5.35714285714286  17.8571428571429 5.35714285714286  Z M 16.0714285714286 12.5  L 16.0714285714286 8.32868303571428  L 11.9001116071429 12.5  L 16.0714285714286 12.5  Z M 7.14285714285714 7.14285714285714  L 7.14285714285714 2.97154017857143  L 2.97154017857143 7.14285714285714  L 7.14285714285714 7.14285714285714  Z M 9.20758928571429 13.0580357142857  C 9.39360119047619 12.6116071428571  9.61681547619048 12.2581845238095  9.87723214285714 11.9977678571429  L 14.2857142857143 7.58928571428572  L 14.2857142857143 1.78571428571428  L 8.92857142857143 1.78571428571428  L 8.92857142857143 7.58928571428572  C 8.92857142857143 7.96130952380952  8.7983630952381 8.27752976190476  8.53794642857143 8.53794642857143  C 8.27752976190476 8.79836309523809  7.96130952380952 8.92857142857143  7.58928571428571 8.92857142857143  L 1.78571428571429 8.92857142857143  L 1.78571428571429 17.8571428571429  L 8.92857142857143 17.8571428571429  L 8.92857142857143 14.2857142857143  C 8.92857142857143 13.9136904761905  9.02157738095238 13.5044642857143  9.20758928571429 13.0580357142857  Z M 10.7142857142857 23  L 23 23  L 23 7.14285714285714  L 17.8571428571429 7.14285714285714  L 17.8571428571429 12.9464285714286  C 17.8571428571429 13.3184523809524  17.7269345238095 13.6346726190476  17.4665178571429 13.8950892857143  C 17.2061011904762 14.155505952381  16.889880952381 14.2857142857143  16.5178571428571 14.2857142857143  L 10.7142857142857 14.2857142857143  L 10.7142857142857 23  Z " fill-rule="nonzero" fill="#ffffff" stroke="none" transform="matrix(1 0 0 1 328 114 )" />
  </g>
</svg>